<svg width="1091" height="1091" viewBox="0 0 1091 1091" fill="none" xmlns="http://www.w3.org/2000/svg">
<path d="M156.114 758.299L144.384 713.761H150.28L159.439 750.897L168.535 713.761H174.682L183.841 750.897L192.937 713.761H198.896L187.166 758.299H180.391L171.608 723.797L162.826 758.299H156.114ZM202.4 758.299V713.761H207.669V732.391L207.042 732.266C207.46 730.426 208.171 728.92 209.174 727.749C210.178 726.578 211.412 725.721 212.875 725.177C214.339 724.592 215.949 724.299 217.706 724.299C220.089 724.299 222.097 724.843 223.728 725.93C225.401 726.976 226.655 728.46 227.491 730.384C228.37 732.266 228.809 734.441 228.809 736.908V758.299H223.54V738.413C223.54 735.193 222.954 732.81 221.783 731.262C220.654 729.715 218.918 728.941 216.577 728.941C213.9 728.941 211.746 729.757 210.115 731.388C208.484 733.019 207.669 735.382 207.669 738.476V758.299H202.4ZM248.59 759.052C245.453 759.052 242.735 758.341 240.435 756.919C238.177 755.497 236.42 753.49 235.166 750.897C233.953 748.262 233.346 745.188 233.346 741.675C233.346 738.163 233.953 735.11 235.166 732.517C236.42 729.924 238.156 727.917 240.372 726.495C242.63 725.031 245.286 724.299 248.339 724.299C251.224 724.299 253.775 724.989 255.992 726.369C258.208 727.708 259.923 729.673 261.136 732.266C262.39 734.859 263.018 738.016 263.018 741.738V743.306H238.867C239.076 746.861 240.017 749.538 241.69 751.336C243.404 753.134 245.704 754.033 248.59 754.033C250.764 754.033 252.542 753.531 253.922 752.528C255.344 751.482 256.326 750.123 256.87 748.45L262.516 748.889C261.638 751.859 259.965 754.305 257.497 756.229C255.072 758.111 252.103 759.052 248.59 759.052ZM238.867 738.664H257.247C256.996 735.444 256.055 733.081 254.424 731.576C252.835 730.07 250.806 729.318 248.339 729.318C245.788 729.318 243.676 730.112 242.003 731.701C240.372 733.249 239.327 735.57 238.867 738.664ZM267.646 758.299V725.052H272.288L272.539 733.458L272.037 733.27C272.455 730.426 273.354 728.356 274.734 727.059C276.156 725.721 278.038 725.052 280.38 725.052H283.642V730.07H280.443C278.77 730.07 277.369 730.384 276.24 731.011C275.153 731.597 274.316 732.496 273.731 733.709C273.187 734.88 272.915 736.385 272.915 738.225V758.299H267.646ZM299.379 759.052C296.242 759.052 293.524 758.341 291.224 756.919C288.966 755.497 287.209 753.49 285.955 750.897C284.742 748.262 284.136 745.188 284.136 741.675C284.136 738.163 284.742 735.11 285.955 732.517C287.209 729.924 288.945 727.917 291.161 726.495C293.42 725.031 296.075 724.299 299.128 724.299C302.014 724.299 304.565 724.989 306.781 726.369C308.998 727.708 310.712 729.673 311.925 732.266C313.18 734.859 313.807 738.016 313.807 741.738V743.306H289.656C289.865 746.861 290.806 749.538 292.479 751.336C294.193 753.134 296.493 754.033 299.379 754.033C301.554 754.033 303.331 753.531 304.711 752.528C306.133 751.482 307.116 750.123 307.659 748.45L313.305 748.889C312.427 751.859 310.754 754.305 308.287 756.229C305.861 758.111 302.892 759.052 299.379 759.052ZM289.656 738.664H308.036C307.785 735.444 306.844 733.081 305.213 731.576C303.624 730.07 301.595 729.318 299.128 729.318C296.577 729.318 294.465 730.112 292.792 731.701C291.161 733.249 290.116 735.57 289.656 738.664ZM345.206 759.052C342.07 759.052 339.351 758.341 337.051 756.919C334.793 755.497 333.036 753.49 331.782 750.897C330.569 748.262 329.963 745.188 329.963 741.675C329.963 738.163 330.569 735.11 331.782 732.517C333.036 729.924 334.772 727.917 336.988 726.495C339.247 725.031 341.902 724.299 344.955 724.299C347.841 724.299 350.392 724.989 352.608 726.369C354.825 727.708 356.539 729.673 357.752 732.266C359.007 734.859 359.634 738.016 359.634 741.738V743.306H335.483C335.692 746.861 336.633 749.538 338.306 751.336C340.02 753.134 342.32 754.033 345.206 754.033C347.381 754.033 349.158 753.531 350.538 752.528C351.96 751.482 352.943 750.123 353.486 748.45L359.132 748.889C358.254 751.859 356.581 754.305 354.114 756.229C351.688 758.111 348.719 759.052 345.206 759.052ZM335.483 738.664H353.863C353.612 735.444 352.671 733.081 351.04 731.576C349.451 730.07 347.423 729.318 344.955 729.318C342.404 729.318 340.292 730.112 338.619 731.701C336.988 733.249 335.943 735.57 335.483 738.664ZM371.751 758.299L359.644 725.052H365.415L375.075 752.904L384.736 725.052H390.507L378.4 758.299H371.751ZM405.735 759.052C402.599 759.052 399.881 758.341 397.581 756.919C395.322 755.497 393.566 753.49 392.311 750.897C391.098 748.262 390.492 745.188 390.492 741.675C390.492 738.163 391.098 735.11 392.311 732.517C393.566 729.924 395.301 727.917 397.518 726.495C399.776 725.031 402.432 724.299 405.485 724.299C408.37 724.299 410.921 724.989 413.138 726.369C415.354 727.708 417.069 729.673 418.281 732.266C419.536 734.859 420.163 738.016 420.163 741.738V743.306H396.012C396.221 746.861 397.162 749.538 398.835 751.336C400.55 753.134 402.85 754.033 405.735 754.033C407.91 754.033 409.687 753.531 411.068 752.528C412.489 751.482 413.472 750.123 414.016 748.45L419.661 748.889C418.783 751.859 417.11 754.305 414.643 756.229C412.218 758.111 409.248 759.052 405.735 759.052ZM396.012 738.664H414.392C414.141 735.444 413.2 733.081 411.569 731.576C409.98 730.07 407.952 729.318 405.485 729.318C402.934 729.318 400.822 730.112 399.149 731.701C397.518 733.249 396.472 735.57 396.012 738.664ZM424.792 758.299V725.052H429.434L429.685 733.458L429.183 733.27C429.601 730.426 430.5 728.356 431.88 727.059C433.302 725.721 435.184 725.052 437.526 725.052H440.788V730.07H437.589C435.916 730.07 434.515 730.384 433.386 731.011C432.298 731.597 431.462 732.496 430.876 733.709C430.333 734.88 430.061 736.385 430.061 738.225V758.299H424.792ZM445.901 767.708V763.066H449.728C450.899 763.066 451.756 762.878 452.3 762.502C452.885 762.167 453.324 761.603 453.617 760.808L454.809 757.672H452.99L440.82 725.052H446.591L456.503 752.779L465.975 725.052H471.746L458.259 762.502C457.632 764.3 456.691 765.617 455.436 766.454C454.182 767.29 452.446 767.708 450.23 767.708H445.901ZM500.922 759.052C497.953 759.052 495.423 758.571 493.332 757.609C491.283 756.647 489.673 755.33 488.502 753.657C487.373 751.942 486.724 749.998 486.557 747.823L492.077 747.447C492.412 749.454 493.269 751.064 494.649 752.277C496.029 753.448 498.12 754.033 500.922 754.033C503.18 754.033 504.979 753.678 506.317 752.967C507.697 752.214 508.387 751.022 508.387 749.391C508.387 748.513 508.178 747.781 507.76 747.196C507.342 746.61 506.526 746.108 505.313 745.69C504.1 745.23 502.302 744.791 499.918 744.373C496.74 743.787 494.231 743.076 492.391 742.24C490.593 741.362 489.296 740.295 488.502 739.041C487.749 737.744 487.373 736.218 487.373 734.461C487.373 731.492 488.46 729.067 490.634 727.185C492.809 725.261 495.904 724.299 499.918 724.299C502.637 724.299 504.916 724.801 506.756 725.805C508.638 726.767 510.102 728.063 511.147 729.694C512.234 731.283 512.945 733.04 513.28 734.963L507.76 735.34C507.509 734.169 507.049 733.144 506.38 732.266C505.711 731.346 504.832 730.635 503.745 730.133C502.658 729.589 501.361 729.318 499.856 729.318C497.472 729.318 495.716 729.778 494.586 730.698C493.457 731.618 492.893 732.789 492.893 734.211C492.893 735.298 493.144 736.197 493.645 736.908C494.189 737.577 495.046 738.142 496.217 738.602C497.388 739.02 498.957 739.396 500.922 739.731C504.31 740.316 506.944 741.027 508.826 741.864C510.708 742.7 512.025 743.725 512.778 744.937C513.531 746.15 513.907 747.635 513.907 749.391C513.907 751.44 513.322 753.197 512.151 754.66C511.022 756.082 509.474 757.17 507.509 757.922C505.585 758.675 503.39 759.052 500.922 759.052ZM531.575 759.052C528.522 759.052 525.846 758.341 523.546 756.919C521.245 755.497 519.468 753.49 518.214 750.897C516.959 748.262 516.332 745.188 516.332 741.675C516.332 738.121 516.959 735.047 518.214 732.454C519.468 729.861 521.245 727.854 523.546 726.432C525.846 725.01 528.522 724.299 531.575 724.299C534.628 724.299 537.283 725.01 539.542 726.432C541.842 727.854 543.619 729.861 544.874 732.454C546.128 735.047 546.756 738.121 546.756 741.675C546.756 745.188 546.128 748.262 544.874 750.897C543.619 753.49 541.842 755.497 539.542 756.919C537.283 758.341 534.628 759.052 531.575 759.052ZM531.575 754.033C534.628 754.033 536.991 752.946 538.663 750.771C540.378 748.555 541.235 745.523 541.235 741.675C541.235 737.828 540.378 734.817 538.663 732.642C536.991 730.426 534.628 729.318 531.575 729.318C528.522 729.318 526.138 730.426 524.424 732.642C522.709 734.817 521.852 737.828 521.852 741.675C521.852 745.523 522.709 748.555 524.424 750.771C526.138 752.946 528.522 754.033 531.575 754.033ZM562.343 759.052C559.039 759.052 556.383 757.943 554.376 755.727C552.41 753.469 551.428 750.374 551.428 746.443V725.052H556.697V745C556.697 748.22 557.261 750.604 558.391 752.151C559.562 753.657 561.339 754.41 563.723 754.41C566.357 754.41 568.427 753.573 569.933 751.9C571.438 750.186 572.191 747.844 572.191 744.875V725.052H577.46V758.299H572.442V750.081L573.258 750.52C572.588 753.239 571.313 755.351 569.431 756.856C567.549 758.32 565.186 759.052 562.343 759.052ZM585 758.299V725.052H589.83L590.019 733.521L589.391 732.956C589.81 730.99 590.541 729.38 591.587 728.126C592.632 726.829 593.887 725.867 595.351 725.24C596.856 724.613 598.466 724.299 600.181 724.299C602.732 724.299 604.823 724.864 606.454 725.993C608.127 727.122 609.36 728.649 610.155 730.572C610.991 732.454 611.41 734.566 611.41 736.908V758.299H606.14V738.413C606.14 736.364 605.889 734.65 605.387 733.27C604.927 731.848 604.175 730.781 603.129 730.07C602.084 729.318 600.725 728.941 599.052 728.941C596.501 728.941 594.389 729.757 592.716 731.388C591.085 732.977 590.27 735.319 590.27 738.413V758.299H585ZM629.999 759.052C627.113 759.052 624.604 758.341 622.471 756.919C620.38 755.497 618.77 753.49 617.641 750.897C616.512 748.304 615.947 745.23 615.947 741.675C615.947 738.121 616.512 735.047 617.641 732.454C618.77 729.861 620.38 727.854 622.471 726.432C624.604 725.01 627.113 724.299 629.999 724.299C632.215 724.299 634.243 724.78 636.083 725.742C637.924 726.662 639.304 727.979 640.224 729.694V713.761H645.493V758.299H640.725L640.537 753.28C639.617 755.079 638.216 756.501 636.334 757.546C634.452 758.55 632.341 759.052 629.999 759.052ZM631.065 754.033C633.031 754.033 634.682 753.531 636.021 752.528C637.401 751.524 638.446 750.102 639.157 748.262C639.868 746.38 640.224 744.185 640.224 741.675C640.224 739.083 639.868 736.866 639.157 735.026C638.446 733.186 637.401 731.785 636.021 730.823C634.682 729.819 633.031 729.318 631.065 729.318C628.138 729.318 625.796 730.426 624.039 732.642C622.325 734.817 621.467 737.828 621.467 741.675C621.467 745.481 622.325 748.492 624.039 750.709C625.796 752.925 628.138 754.033 631.065 754.033ZM666.177 758.299V725.052H671.007L671.195 733.458L670.442 733.207C670.819 731.367 671.467 729.799 672.387 728.502C673.349 727.164 674.52 726.139 675.9 725.428C677.28 724.676 678.806 724.299 680.479 724.299C683.365 724.299 685.707 725.094 687.505 726.683C689.345 728.272 690.495 730.489 690.955 733.332L689.951 733.27C690.286 731.346 690.892 729.736 691.77 728.439C692.69 727.101 693.861 726.077 695.283 725.366C696.705 724.655 698.336 724.299 700.176 724.299C702.56 724.299 704.567 724.801 706.198 725.805C707.829 726.767 709.063 728.188 709.899 730.07C710.736 731.952 711.154 734.231 711.154 736.908V758.299H705.885V738.037C705.885 735.026 705.299 732.768 704.128 731.262C702.957 729.715 701.222 728.941 698.922 728.941C697.374 728.941 696.015 729.318 694.844 730.07C693.715 730.823 692.837 731.91 692.21 733.332C691.582 734.712 691.269 736.406 691.269 738.413V758.299H685.999V738.413C685.999 735.444 685.477 733.123 684.431 731.45C683.386 729.778 681.629 728.941 679.162 728.941C677.614 728.941 676.255 729.318 675.084 730.07C673.955 730.823 673.056 731.91 672.387 733.332C671.76 734.754 671.446 736.448 671.446 738.413V758.299H666.177ZM727.036 759.052C723.607 759.052 720.868 758.257 718.819 756.668C716.811 755.079 715.808 752.862 715.808 750.018C715.808 747.175 716.644 744.937 718.317 743.306C719.99 741.675 722.645 740.525 726.284 739.856L738.077 737.661C738.077 734.859 737.408 732.768 736.069 731.388C734.773 730.008 732.808 729.318 730.173 729.318C727.873 729.318 726.054 729.84 724.715 730.886C723.377 731.89 722.457 733.353 721.955 735.277L716.372 734.838C717 731.701 718.505 729.171 720.889 727.248C723.314 725.282 726.409 724.299 730.173 724.299C734.438 724.299 737.7 725.512 739.959 727.938C742.217 730.321 743.346 733.625 743.346 737.849V751.587C743.346 752.339 743.472 752.883 743.723 753.218C744.015 753.51 744.475 753.657 745.103 753.657H746.42V758.299C746.253 758.341 745.981 758.362 745.604 758.362C745.228 758.403 744.831 758.424 744.413 758.424C742.907 758.424 741.673 758.194 740.711 757.734C739.791 757.232 739.122 756.48 738.704 755.476C738.286 754.43 738.077 753.071 738.077 751.399L738.704 751.524C738.411 752.946 737.7 754.242 736.571 755.413C735.442 756.542 734.041 757.442 732.368 758.111C730.696 758.738 728.918 759.052 727.036 759.052ZM727.538 754.41C729.755 754.41 731.637 753.991 733.184 753.155C734.773 752.277 735.986 751.106 736.822 749.642C737.659 748.137 738.077 746.464 738.077 744.624V742.24L727.287 744.247C725.029 744.666 723.461 745.314 722.583 746.192C721.746 747.028 721.328 748.137 721.328 749.517C721.328 751.064 721.872 752.277 722.959 753.155C724.088 753.991 725.614 754.41 727.538 754.41ZM760.378 758.299C757.367 758.299 755.129 757.609 753.666 756.229C752.244 754.849 751.533 752.695 751.533 749.768V717.273H756.802V749.642C756.802 751.148 757.137 752.193 757.806 752.779C758.475 753.364 759.5 753.657 760.88 753.657H765.647V758.299H760.378ZM746.64 729.694V725.052H765.647V729.694H746.64ZM779.259 758.299C776.248 758.299 774.011 757.609 772.547 756.229C771.126 754.849 770.415 752.695 770.415 749.768V717.273H775.684V749.642C775.684 751.148 776.018 752.193 776.688 752.779C777.357 753.364 778.381 753.657 779.761 753.657H784.529V758.299H779.259ZM765.522 729.694V725.052H784.529V729.694H765.522ZM801.198 759.052C798.062 759.052 795.343 758.341 793.043 756.919C790.785 755.497 789.029 753.49 787.774 750.897C786.561 748.262 785.955 745.188 785.955 741.675C785.955 738.163 786.561 735.11 787.774 732.517C789.029 729.924 790.764 727.917 792.981 726.495C795.239 725.031 797.894 724.299 800.947 724.299C803.833 724.299 806.384 724.989 808.6 726.369C810.817 727.708 812.531 729.673 813.744 732.266C814.999 734.859 815.626 738.016 815.626 741.738V743.306H791.475C791.684 746.861 792.625 749.538 794.298 751.336C796.013 753.134 798.313 754.033 801.198 754.033C803.373 754.033 805.15 753.531 806.53 752.528C807.952 751.482 808.935 750.123 809.479 748.45L815.124 748.889C814.246 751.859 812.573 754.305 810.106 756.229C807.68 758.111 804.711 759.052 801.198 759.052ZM791.475 738.664H809.855C809.604 735.444 808.663 733.081 807.032 731.576C805.443 730.07 803.415 729.318 800.947 729.318C798.396 729.318 796.284 730.112 794.612 731.701C792.981 733.249 791.935 735.57 791.475 738.664ZM820.254 758.299V725.052H824.896L825.147 733.458L824.646 733.27C825.064 730.426 825.963 728.356 827.343 727.059C828.765 725.721 830.647 725.052 832.989 725.052H836.251V730.07H833.051C831.379 730.07 829.978 730.384 828.848 731.011C827.761 731.597 826.925 732.496 826.339 733.709C825.796 734.88 825.524 736.385 825.524 738.225V758.299H820.254ZM851.109 759.052C848.14 759.052 845.61 758.571 843.519 757.609C841.47 756.647 839.86 755.33 838.689 753.657C837.56 751.942 836.911 749.998 836.744 747.823L842.264 747.447C842.599 749.454 843.456 751.064 844.836 752.277C846.216 753.448 848.307 754.033 851.109 754.033C853.367 754.033 855.166 753.678 856.504 752.967C857.884 752.214 858.574 751.022 858.574 749.391C858.574 748.513 858.365 747.781 857.947 747.196C857.529 746.61 856.713 746.108 855.5 745.69C854.288 745.23 852.489 744.791 850.106 744.373C846.927 743.787 844.418 743.076 842.578 742.24C840.78 741.362 839.483 740.295 838.689 739.041C837.936 737.744 837.56 736.218 837.56 734.461C837.56 731.492 838.647 729.067 840.822 727.185C842.996 725.261 846.091 724.299 850.106 724.299C852.824 724.299 855.103 724.801 856.943 725.805C858.825 726.767 860.289 728.063 861.334 729.694C862.421 731.283 863.132 733.04 863.467 734.963L857.947 735.34C857.696 734.169 857.236 733.144 856.567 732.266C855.898 731.346 855.019 730.635 853.932 730.133C852.845 729.589 851.548 729.318 850.043 729.318C847.659 729.318 845.903 729.778 844.773 730.698C843.644 731.618 843.08 732.789 843.08 734.211C843.08 735.298 843.331 736.197 843.833 736.908C844.376 737.577 845.234 738.142 846.404 738.602C847.575 739.02 849.144 739.396 851.109 739.731C854.497 740.316 857.131 741.027 859.013 741.864C860.895 742.7 862.212 743.725 862.965 744.937C863.718 746.15 864.094 747.635 864.094 749.391C864.094 751.44 863.509 753.197 862.338 754.66C861.209 756.082 859.661 757.17 857.696 757.922C855.772 758.675 853.577 759.052 851.109 759.052Z" fill="#F4F4F4"/>
<path d="M244.762 323.168C253.369 322.971 264.413 322.579 272.672 324.576C290.402 328.864 306.41 338.318 301.467 358.976C307.248 360.635 318.455 366.504 323.242 370.11C328.781 374.281 336.685 382.591 340.837 388.369C349.801 400.839 355.762 416.67 358.78 431.662C360.444 439.981 359.794 449.177 359.953 457.617C359.988 461.507 360.058 466.524 359.907 470.336C359.538 479.065 358.429 487.746 356.59 496.287C354.77 504.791 352.548 510.373 349.628 518.327C339.838 544.528 327.557 569.729 312.956 593.584C307.515 602.398 301.38 610.85 295.855 619.623C285.32 636.355 278.154 654.839 264.704 669.638C262.149 672.138 259.327 676.463 256.544 678.537C252.61 681.465 246.889 685.648 242.519 687.79C236.886 690.549 227.831 693.744 221.745 694.711C213.312 696.049 204.264 695.83 195.85 694.633C178.494 691.385 164.259 678.744 157.064 662.88C153.975 655.635 152.485 647.891 150.908 640.239C149.599 633.891 153.775 627.607 160.165 626.826C162.092 626.593 164.042 627.013 165.702 628.02C172.464 632.036 171.282 642.948 173.955 649.693C176.591 656.344 180.271 664.162 186.232 668.499C194.662 674.633 205.754 676.647 215.975 675.402C234.648 672.845 249.388 660.086 259.018 644.477C260.756 641.754 262.036 638.581 263.681 635.841C266.73 630.768 268.978 624.95 271.839 619.856C277.338 610.071 283.852 600.794 290.229 591.57C292.635 588.092 294.989 583.787 297.519 580.532L297.7 580.303C295.129 580.689 292.325 580.582 289.967 581.029C288.445 582.016 286.306 584.806 284.914 586.206C279.358 591.789 270.938 594.693 265.533 586.719C256.868 590.671 248.293 586.546 238.67 592.057C228.875 597.668 226.499 609.564 214.279 614.965C208.068 617.709 202.197 618.083 195.821 615.574C188.488 612.689 182.235 606.9 179.08 599.641C176.199 593.013 175.676 588.255 177.42 581.353C178.075 578.761 178.899 576.287 180.317 574.003C182.378 570.686 185.311 567.581 187.977 564.736C190.022 562.555 192.917 560.316 193.979 557.452C195.733 552.715 192.092 546.313 190.154 542.104C188.007 537.438 185.654 531.472 187.569 526.388C189.351 521.66 192.59 517.809 197.245 515.764C202.448 513.48 208.262 512.67 213.645 514.729C205.657 504.666 200.491 495.599 197.316 482.984C191.541 460.045 195.038 435.331 208.689 415.821C216.333 404.896 221.127 400.528 232.72 393.77L232.652 393.419C232.053 390.461 232.374 387.808 233.509 385.024C230.242 386.967 225.135 390.047 222.141 392.347C215.13 397.731 208.22 405.852 203.713 413.461C201.206 417.694 198.516 423.922 196.478 428.437C195.253 431.152 193.051 433.408 192.226 435.659C191.443 438.308 192.173 441.866 191.567 444.484C190.022 451.171 188.968 457.688 187.844 464.455C186.455 472.824 186.516 481.744 183.929 489.828C182.785 493.401 179.486 498.515 177.119 501.544C171.596 507.528 164.265 510.117 156.257 510.629C144.419 511.385 134.955 510.027 125.722 501.752C120.95 497.544 117.445 492.088 115.602 485.998C114.935 483.732 114.49 481.407 114.273 479.055C113.916 475.221 113.985 470.376 114.061 466.468C114.301 454.071 113.13 441.046 115.924 428.916C117.288 423.213 118.998 417.599 121.045 412.104C122.078 409.309 124.141 406.114 124.515 403.182C124.779 401.116 124.029 399.028 123.969 396.959C123.788 390.65 134.551 371.773 139.726 367.884C143.355 365.157 146.98 366.004 149.762 364.135C151.943 362.671 153.624 360.006 155.433 358.097C157.365 356.057 159.577 354.312 161.758 352.551C172.659 343.751 184.828 337.932 197.877 333.031C206.576 329.764 215.472 327.024 224.616 325.272C231.258 323.991 237.998 323.287 244.762 323.168ZM220.978 461.612C232.404 466.381 245.925 469.81 256.709 475.728C270.547 483.192 280.776 495.941 285.058 511.068C287.367 519.009 287.256 524.13 287.13 532.27C286.974 542.328 288.452 546.365 283.432 555.525C281.024 558.908 279.003 561.12 276.006 563.969C273.69 565.845 273.367 566.035 272.266 568.799C273.48 567.752 275.261 565.808 276.303 564.538C278.824 561.86 281.605 558.803 283.628 555.716C287.072 551.043 292.107 542.549 294.447 537.407C296.442 532.929 297.642 527.276 299.269 522.782C301.794 515.816 300.001 512.218 299.174 505.328C298.945 503.423 299.753 499.832 299.578 497.684C298.952 489.987 299.296 482.284 298.989 474.584C297.677 462.662 294.783 449.314 288.848 438.84C284.364 430.93 278.544 423.664 269.466 421.313C263.861 419.862 257.437 418.1 255.798 425.375C256.22 425.814 256.639 426.255 257.055 426.699C260.045 429.889 261.17 432.235 262.092 436.58C263.857 444.885 262.622 454.257 256.066 460.21C251.819 464.067 246.075 466.292 240.676 463.287C238.96 462.331 237.544 460.675 235.703 459.904C233.711 459.107 230.551 458.653 228.412 458.585C224.898 458.473 223.371 459.37 220.978 461.612Z" fill="#F8F8F8"/>
<path d="M153.821 371.641C157.332 364.806 165.146 358.26 171.419 353.933C178.309 349.18 186.352 345.068 194.061 341.802C196.144 340.92 198.779 340.194 200.934 339.344C211.284 335.192 221.891 332.502 232.896 330.828C239.7 329.794 245.122 329.262 252.014 329.416C257.925 329.549 262.969 329.384 268.828 330.802C280.897 333.724 298.59 339.515 294.675 355.5C294.182 357.493 292.723 361.641 290.735 362.756C290.298 363.002 290.232 362.978 289.985 363.432C290.308 363.974 291.98 363.997 292.826 364.124C296.343 364.665 299.782 365.634 303.066 367.008C315.308 372.037 322.804 377.975 331.374 388.027C334.943 392.213 338.216 397.029 340.82 401.879C346.768 412.951 351.485 428.087 352.728 440.63C353.252 445.92 353.021 451.371 353.037 456.684C353.05 461.333 353.169 466.046 352.805 470.683C352.145 479.063 351.054 487.73 349.04 495.897C345.438 510.498 340.049 523.28 334.031 536.96C325.785 555.697 317.295 572.851 306.54 590.295C303.874 594.62 300.86 598.71 298.003 602.904C293.97 608.831 290.024 614.894 286.334 621.04C284.52 624.062 282.926 627.241 281.248 630.338L274.125 643.361C273.026 645.394 272.008 647.492 270.83 649.48C269.659 651.455 268.214 653.269 266.87 655.127C262.157 661.643 257.048 668.323 250.892 673.561C247.913 676.095 244.71 678.101 241.308 680.004C229.03 686.877 216.602 689.591 202.59 688.413C188.836 687.255 178.902 681.237 170.205 670.867C163.654 663.055 160.711 652.84 158.727 643.037C158.319 641.025 157.491 638.751 157.731 636.689C157.862 635.558 158.405 634.51 159.348 633.85C159.973 633.413 160.745 633.191 161.501 633.354C162.419 633.554 163.252 634.325 163.577 635.201C164.28 637.096 164.417 640.765 164.77 642.916C166.099 651.04 168.95 658.621 173.611 665.433C180.036 674.827 189.641 680.019 200.697 682.016C211.602 683.985 224.087 682.016 234.016 677.2C237.613 675.456 241.096 673.11 244.369 670.819C256.659 662.21 264.732 649.597 271.383 636.415C273.677 631.869 275.696 627.02 278.349 622.679C281.38 617.718 284.346 612.678 287.581 607.847C293.455 599.075 299.716 590.583 305.187 581.541C306.449 579.457 307.517 577.253 308.702 575.125C311.634 569.854 314.64 564.605 317.275 559.176C319.32 554.963 321.101 550.582 323.039 546.314C327.162 537.229 330.958 528.153 334.547 518.843C338.833 507.718 342.736 496.645 344.783 484.85C346.216 476.591 346.58 468.041 346.651 459.669C346.729 451.013 346.517 442.158 345.113 433.598C342.9 420.084 337.233 406.622 329.325 395.467C318.142 379.691 303.785 372.039 284.922 368.926C249.963 363.21 215.087 379.568 197.13 410.102C195.772 412.364 194.585 414.665 193.326 416.976C191.336 420.631 189.995 424.553 188.145 428.263C187.85 428.855 186.984 429.511 186.455 429.89C185.179 431.443 184.209 435.139 184.427 437.137C185.17 441.321 183.214 447.891 182.337 452.116C180.267 462.084 179.411 472.011 178.374 482.093C177.164 490.369 171.873 499.02 163.638 501.882C150.78 506.35 135.987 503.971 127.199 492.905C119.931 483.752 120.048 473.767 120.262 462.727C120.371 457.1 120.119 451.604 120.432 445.991C121.576 432.614 125.414 419.226 130.972 407.037C132.675 403.331 132.246 400.947 130.797 397.277C132.037 390.9 134.068 388.353 137.327 383.057C138.994 380.348 140.045 378.129 142.072 375.472C145.806 370.578 148.165 372.405 153.515 371.684L153.821 371.641Z" fill="#AD0600"/>
<path d="M253.605 339.073C259.102 339.694 264.748 339.719 270.253 340.322C273.259 340.651 276.159 341.889 279.184 342.101C280.619 342.202 280.897 341.919 282.015 341.21C291.83 345.415 292.347 357.038 282.709 361.51C281.975 361.849 280.442 362.094 279.604 362.177C275.376 362.594 270.937 362.146 266.721 362.52C259.388 363.172 251.808 363.754 244.668 365.617C232.342 368.831 221.102 376.137 211.428 384.247C208.983 386.388 206.801 388.869 204.492 391.136C197.572 397.925 191.73 405.777 187.608 414.573C186.246 417.48 184.999 420.103 184.26 423.28C183.513 426.487 182.383 428.815 186.453 429.889C185.178 431.442 184.207 435.139 184.425 437.137C178.559 435.915 179.588 439.106 178.301 443.372C177.127 446.606 176.376 449.48 175.612 452.856C172.554 466.378 177.213 485.784 164.318 495.104C159.912 498.289 147.846 499.508 143.234 497.155C143.493 496.186 142.884 497.359 143.038 496.132C143.324 495.929 143.491 495.792 143.757 495.562C143.462 494.723 142.029 493.99 141.27 493.52C140.016 492.745 138.914 491.985 137.868 490.924C136.307 489.342 135.308 487.768 134.27 485.76C132.158 481.676 131.54 476.937 130.953 472.424C130.4 465.657 130.113 442.407 131.985 436.827C132.27 441.671 132.879 447.932 136.539 451.614C143.773 458.891 161.283 461.227 167.245 451.179C169.188 447.905 169.738 443.538 170.527 439.81C171.023 437.561 171.557 435.322 172.129 433.092C173.467 427.879 175.138 423.729 177.15 418.84C183.796 402.613 194.478 388.41 207.917 377.192C216.185 370.29 222.631 366.585 232.569 362.569C249.295 355.81 265.136 355.301 282.804 355.316C283.002 354.075 283.221 353.418 283.6 352.222C279.341 350.116 276.353 350.294 271.673 350.26C265.563 350.215 259.755 350.456 253.661 351.029C254.432 345.815 254.335 344.377 253.605 339.073Z" fill="#FF837E"/>
<path d="M128.102 434.065C129.421 434.017 130.867 434.053 132.198 434.062C132.174 435.075 132.095 435.832 131.982 436.826C130.11 442.407 130.397 465.657 130.951 472.424C131.537 476.937 132.156 481.676 134.267 485.76C135.305 487.767 136.304 489.342 137.865 490.923C138.912 491.984 140.014 492.744 141.268 493.52C142.026 493.989 143.459 494.722 143.755 495.561C143.489 495.792 143.322 495.928 143.035 496.132C142.881 497.358 143.491 496.185 143.232 497.155C138.94 495.742 133.431 492.469 130.968 488.657C122.092 474.919 125.496 449.264 128.102 434.065Z" fill="#F8F8F8"/>
<path d="M252.874 336.308C262.677 336.257 272.991 336.768 282.017 341.211C280.898 341.92 280.621 342.203 279.186 342.102C276.16 341.89 273.261 340.651 270.255 340.323C264.749 339.72 259.104 339.695 253.606 339.074C253.379 338.062 253.224 337.292 252.874 336.308Z" fill="#F8F8F8"/>
<path d="M170.537 366.351C178.412 364.82 187.602 372.734 188.706 380.398C189.765 387.743 186.193 392.976 182.176 398.798C175.402 409.062 169.876 420.653 166.815 432.588C166.319 434.519 165.648 437.089 165.335 439.023C164.44 444.565 163.959 451.124 157.11 452.416C151.984 453.383 146.876 452.476 142.603 449.405C137.888 446.165 137.677 443.508 137.668 438.136C137.661 433.587 138.302 430.539 133.306 428.847C132.311 428.63 130.952 428.451 129.924 428.289C130.953 420.457 134.028 412.999 137.396 405.917C138.789 406.772 140.574 407.607 142.102 408.195C146.499 409.422 148.048 409.434 150.994 405.768C155.447 400.226 158.245 393.576 162.257 387.751C165.846 382.539 166.075 380.421 161.064 376.174C160.232 375.755 159.417 375.407 158.565 375.035C161.22 369.911 164.495 366.648 170.537 366.351Z" fill="#FF837E"/>
<path d="M137.396 405.918C138.789 406.774 140.574 407.609 142.102 408.197C140.268 412.847 138.496 417.52 136.785 422.217C136.088 424.098 135.426 426.009 134.712 427.883C134.48 428.494 133.92 428.765 133.306 428.848C132.311 428.632 130.952 428.452 129.924 428.291C130.953 420.459 134.028 413.001 137.396 405.918Z" fill="#F8F8F8"/>
<path d="M158.568 375.035C161.223 369.91 164.499 366.647 170.541 366.351C171.243 366.371 171.54 366.274 172.081 366.597C171.536 367.954 165.146 374.937 163.488 375.899C163.23 376.049 161.506 376.146 161.068 376.174C160.235 375.755 159.42 375.406 158.568 375.035Z" fill="#F8F8F8"/>
<path d="M172.89 361.344C173.339 360.855 174.342 359.793 174.893 359.388C188.988 349.109 206.003 341.284 222.804 336.673C227.834 335.293 242.746 333.73 246.152 337.815C248.082 340.71 249.673 342.982 249.065 346.82C248.775 348.64 246.713 351.843 245.113 352.644C241.518 354.442 236.545 355.376 232.805 356.86C226.513 359.357 219.907 362.749 213.989 366.03C210.319 368.064 205.059 372.78 201.865 375.673C199.408 377.897 197.788 380.163 194.848 381.872C192.722 374.79 190.456 368.24 183.5 364.568C181.935 363.742 178.295 362.294 176.576 361.949C175.239 361.641 174.255 361.514 172.89 361.344Z" fill="#FF837E"/>
<path d="M172.89 361.344C173.339 360.855 174.342 359.793 174.893 359.388C188.988 349.109 206.003 341.284 222.804 336.673C227.834 335.293 242.746 333.73 246.152 337.815C245.894 338.349 245.497 339.034 244.913 339.161C239.569 340.316 233.492 340.517 228.125 341.562C216.613 343.892 205.421 347.593 194.788 352.584C191.637 354.036 188.93 355.574 186.055 357.555C183.148 359.558 180.351 362.258 176.576 361.949C175.239 361.641 174.255 361.514 172.89 361.344Z" fill="#F8F8F8"/>
<path d="M149.476 376.801C151.386 377.373 153.06 377.932 154.835 378.849C156.133 379.601 157.97 380.713 159.12 381.69C157.087 387.628 150.09 398.256 146.352 403.796C145.159 403.361 142.266 402.339 141.237 401.687C130.847 397.134 141.171 389.068 144.023 382.721C144.972 380.608 147.339 377.731 149.476 376.801Z" fill="#F8F8F8"/>
<path d="M154.833 378.849C156.131 379.601 157.969 380.713 159.118 381.69C157.086 387.628 150.088 398.256 146.35 403.796C145.157 403.361 142.265 402.339 141.236 401.687C143.278 395.861 149.17 387.255 152.652 382.147C153.231 381.297 154.284 379.49 154.833 378.849Z" fill="#FF837E"/>
<path d="M234.676 527.326C231.97 524.483 229.268 521.149 226.498 518.203C224.196 515.754 221.067 512.634 218.997 510.161C206.388 494.919 200.299 475.317 202.055 455.613C203.802 436.445 211.535 418.584 226.632 406.012C237.144 397.258 253.703 393.208 267.104 394.535C282.797 396.089 297.457 402.595 307.472 415.022C321.605 431.854 326.773 451.776 324.233 473.406C323.087 483.158 321.265 490.577 319.036 500.142C312.779 526.988 304.701 553.535 285.473 574.188C283.03 576.811 280.791 579.769 278.076 582.115C274.247 585.451 269.31 585.2 272.068 579.138C272.827 577.466 277.197 574.195 278.785 572.586C281.409 569.896 283.875 567.057 286.17 564.082C299.993 546.406 303.992 535.562 309.21 514.125C308.849 513.107 308.01 513.568 307.724 512.867C305.819 508.196 307.004 502.603 306.973 497.747C306.949 493.774 306.58 489.848 306.594 485.864C306.654 468.478 303.471 450.209 294.725 434.991C288.914 424.917 281.787 417.084 270.163 413.88C257.185 410.303 247.362 414.241 248.293 429.015C248.384 430.764 248.427 430.919 250.341 431.104L250.607 431.127C252.223 431.724 253.114 432.466 253.775 434.137C256.709 441.567 256.542 452.737 248.372 456.804C246.498 457.737 244.541 457.333 242.622 456.851C242.457 456.063 242.187 454.54 241.905 453.851C240.01 452.736 239.179 452.926 236.93 452.419C228.216 450.455 212.631 450.402 213.941 463.355C214.066 464.586 215.688 466.175 215.521 467.671C220.224 469.094 224.844 471.162 229.405 472.513C245.855 477.389 262.849 484.022 271.982 499.567C278.671 510.95 280.465 522.528 279.976 535.483C279.869 539.139 280.346 543.481 279.175 547.148C277.655 551.917 271.808 558.31 267.398 560.734C265.242 561.918 263.624 561.812 261.356 561.26C261.181 559.91 261.02 558.448 260.785 557.118C266.576 553.64 271.34 550.678 272.897 543.767C273.75 539.986 274.031 531.56 273.418 527.715C273.249 527.396 272.483 525.112 272.295 524.592C271.573 522.578 270.78 520.592 269.918 518.634C266.718 511.513 259.985 502.483 254.262 497.137C248.949 492.173 240.443 485.836 233.334 483.873C231.091 483.253 229.099 483.255 226.807 483.311C224.436 484.754 223.543 485.386 222.138 487.836C221.729 497.005 231.583 503.739 233.301 512.762C233.528 513.954 233.874 515.071 233.662 516.29C240.435 522.755 247.768 532.135 253.299 539.79C254.377 541.281 253 545.115 250.792 545.054C247.883 545.004 246.347 541.097 244.719 539.411C244.655 539.297 244.51 538.805 244.461 538.66C244.077 535.067 237.561 529.418 234.676 527.326Z" fill="#AD0600"/>
<path d="M215.52 467.67C213.016 466.402 208.154 464.684 207.397 461.685C206.413 457.505 207.977 452.819 208.614 448.749C211.796 428.395 225.923 407.53 246.565 402.266C281.274 393.416 309.141 414.201 317.408 447.559C318.534 452.109 318.788 456.027 318.794 460.684C319.212 470.283 317.959 478.089 315.885 487.412C314.644 493.031 313.293 498.625 311.83 504.19C311.329 506.034 309.667 512.909 309.209 514.124C308.847 513.107 308.008 513.567 307.723 512.866C305.818 508.195 307.003 502.602 306.971 497.746C306.948 493.773 306.579 489.847 306.593 485.864C306.653 468.478 303.47 450.208 294.724 434.991C288.913 424.917 281.786 417.084 270.162 413.879C257.184 410.302 247.361 414.241 248.291 429.014C248.383 430.763 248.425 430.918 250.34 431.103L250.606 431.127C252.222 431.724 253.113 432.465 253.774 434.136C256.708 441.566 256.541 452.736 248.371 456.804C246.497 457.737 244.54 457.333 242.621 456.85C242.456 456.062 242.186 454.54 241.904 453.85C240.009 452.736 239.178 452.925 236.929 452.418C228.215 450.454 212.63 450.402 213.94 463.355C214.064 464.585 215.687 466.174 215.52 467.67Z" fill="#FF837E"/>
<path d="M250.604 431.127C252.219 431.725 253.111 432.466 253.771 434.137C256.705 441.567 256.538 452.737 248.369 456.805C246.495 457.737 244.537 457.333 242.618 456.851C242.453 456.063 242.183 454.54 241.902 453.851C242.566 451.331 247.262 451.437 248.002 449.248C249.475 444.891 248.6 437.318 247.066 433.191C248.372 431.825 248.753 431.365 250.604 431.127Z" fill="#AD0600"/>
<path d="M208.282 470.488C212.133 472.444 216.275 473.648 220.34 475.108C236.825 481.031 254.524 485.287 265.197 500.527C271 508.813 274.485 516.423 274.336 526.888C273.95 527.199 274.122 527.098 273.594 527.195C273.546 527.331 273.439 527.585 273.417 527.716C273.248 527.397 272.483 525.113 272.295 524.593C271.573 522.579 270.78 520.592 269.918 518.635C266.718 511.514 259.985 502.484 254.262 497.138C248.949 492.174 240.443 485.837 233.334 483.874C231.091 483.254 229.099 483.256 226.807 483.312C224.436 484.755 223.542 485.386 222.137 487.837C221.728 497.006 231.583 503.74 233.301 512.763C233.528 513.955 233.873 515.071 233.662 516.291C220.918 506.723 210.922 491.081 208.691 475.218C208.46 473.651 208.323 472.072 208.282 470.488Z" fill="#FF837E"/>
<path d="M264.33 573.938C264.644 575.024 265.248 578.414 264.421 579.17C262.419 580.855 257.36 581.463 254.807 581.457C247.033 581.436 240.054 581.873 233.348 586.398C224.518 592.358 219.463 606.299 208.711 609.276C208.257 609.4 207.798 609.507 207.335 609.594C202.383 610.53 197.597 609.066 193.523 606.243C188.474 602.702 185.025 597.312 183.926 591.243C181.523 577.694 192.038 571.753 199.381 562.995C203.204 558.247 201.671 548.664 198.991 543.607C194.026 534.239 189.606 524.212 204.096 520.907C211.297 519.264 219.131 523.766 225.134 527.991C227.606 528.85 232.701 529.394 234.676 527.327C237.562 529.419 244.077 535.068 244.462 538.661C244.51 538.806 244.656 539.298 244.72 539.412C243.963 539.696 243.425 539.898 242.648 540.107L242.448 540.166C240.436 540.744 238.966 540.939 236.676 540.828C230.748 540.537 218.928 535.458 214.641 541.665C212.685 544.496 215.377 553.093 216.033 556.115C216.378 557.705 216.538 563.537 216.21 565.091C213.893 576.053 204.679 576.261 204.315 589.45C206.942 590.983 207.982 594.857 211.45 596.308C213.174 597.028 214.06 596.531 215.232 596.983C216.748 595.538 218.289 593.319 219.546 591.637C221.988 588.365 224.796 584.899 227.966 582.355C236.199 575.746 245.112 575.513 255.137 574.88C258.489 574.668 260.658 573.532 264.33 573.938Z" fill="#FF837E"/>
<path d="M264.33 573.938C264.644 575.024 265.248 578.414 264.421 579.17C262.419 580.855 257.36 581.463 254.807 581.457C247.033 581.436 240.054 581.873 233.348 586.398C224.518 592.358 219.463 606.299 208.711 609.276C208.257 609.4 207.798 609.507 207.335 609.594C202.383 610.53 197.597 609.066 193.523 606.243C188.474 602.702 185.025 597.312 183.926 591.243C181.523 577.694 192.038 571.753 199.381 562.995C203.204 558.247 201.671 548.664 198.991 543.607C194.026 534.239 189.606 524.212 204.096 520.907C211.297 519.264 219.131 523.766 225.134 527.991C224.777 529.329 224.578 531.625 223.114 532.268C219.657 533.786 207.526 521.608 200.456 529.394C201.707 536.159 203.761 538.995 206.27 545.314C208.408 552.184 208.887 559.439 205 565.597C199.706 573.983 187.785 578.678 189.911 589.905C191.45 598.036 200.463 607.885 209.19 602.638C210.869 601.628 213.927 598.566 215.232 596.983C216.748 595.538 218.289 593.319 219.546 591.637C221.988 588.365 224.796 584.899 227.966 582.355C236.199 575.746 245.112 575.513 255.137 574.88C258.489 574.668 260.658 573.532 264.33 573.938Z" fill="#AD0600"/>
<path d="M242.646 540.107L242.551 539.689C243.023 539.214 243.808 538.955 244.46 538.66C244.509 538.806 244.654 539.297 244.718 539.412C243.961 539.695 243.423 539.897 242.646 540.107Z" fill="#FF837E"/>
<path d="M283.434 555.525L283.63 555.715C281.606 558.803 278.826 561.859 276.305 564.537L276.008 563.968C279.004 561.119 281.026 558.908 283.434 555.525Z" fill="#AD0600"/>
<path d="M276.003 563.966L276.301 564.535C275.258 565.805 273.477 567.749 272.263 568.796C273.364 566.033 273.687 565.842 276.003 563.966Z" fill="#AD0600"/>
<path d="M398.706 437.626V363.14H409.089V437.626H398.706ZM404.01 437.626V428.71H450.959V437.626H404.01ZM404.01 403.769V395.417H445.655V403.769H404.01ZM404.01 371.943V363.14H450.846V371.943H404.01ZM479.655 439.093C474.539 439.093 470.175 438.266 466.563 436.61C463.027 434.955 460.13 432.735 457.873 429.952C455.691 427.168 454.074 423.97 453.02 420.359C452.042 416.747 451.553 412.985 451.553 409.073C451.553 404.784 452.117 400.759 453.246 396.997C454.375 393.235 456.067 389.925 458.325 387.066C460.657 384.131 463.516 381.874 466.902 380.294C470.363 378.639 474.388 377.811 478.978 377.811C483.417 377.811 487.329 378.601 490.715 380.181C494.101 381.686 496.847 383.83 498.953 386.614C501.135 389.398 502.527 392.709 503.129 396.546L493.311 399.254C493.16 397.148 492.521 395.116 491.392 393.16C490.339 391.204 488.759 389.624 486.652 388.42C484.545 387.141 481.95 386.501 478.865 386.501C475.93 386.501 473.41 387.066 471.303 388.194C469.272 389.323 467.541 390.903 466.112 392.934C464.758 394.966 463.704 397.336 462.952 400.044C462.275 402.753 461.936 405.687 461.936 408.847C461.936 413.211 462.538 417.011 463.742 420.246C465.021 423.481 466.977 426.002 469.61 427.807C472.244 429.613 475.63 430.516 479.768 430.516C482.852 430.516 485.486 429.989 487.668 428.936C489.85 427.807 491.58 426.265 492.859 424.309C494.138 422.277 494.966 419.907 495.342 417.199L504.822 419.343C504.295 422.578 503.317 425.437 501.888 427.92C500.458 430.403 498.652 432.472 496.471 434.127C494.289 435.707 491.768 436.911 488.909 437.739C486.125 438.642 483.04 439.093 479.655 439.093ZM508.64 437.626V402.189V358.626H519.248V376.796C519.248 378.451 519.173 380.144 519.023 381.874C518.947 383.529 518.797 385.222 518.571 386.953C518.421 388.683 518.233 390.451 518.007 392.257C517.781 393.988 517.518 395.756 517.217 397.561H519.136C520.264 393.122 521.694 389.473 523.424 386.614C525.155 383.68 527.299 381.498 529.857 380.069C532.49 378.564 535.613 377.811 539.224 377.811C545.845 377.811 550.773 380.144 554.009 384.809C557.319 389.398 558.974 396.282 558.974 405.462V437.626H548.591V406.477C548.591 399.706 547.538 394.778 545.431 391.693C543.4 388.533 540.315 386.953 536.177 386.953C532.716 386.953 529.782 387.969 527.374 390C524.967 392.031 523.048 394.778 521.618 398.239C520.264 401.7 519.361 405.65 518.91 410.089V437.626H508.64ZM593.024 439.093C587.456 439.093 582.528 437.889 578.24 435.482C574.026 432.999 570.716 429.463 568.308 424.873C565.976 420.284 564.809 414.716 564.809 408.17C564.809 401.399 566.051 395.793 568.534 391.354C571.092 386.84 574.478 383.454 578.691 381.197C582.904 378.94 587.607 377.811 592.798 377.811C598.215 377.811 603.031 379.015 607.244 381.423C611.533 383.755 614.918 387.216 617.401 391.806C619.884 396.32 621.125 401.925 621.125 408.622C621.125 415.318 619.884 420.923 617.401 425.437C614.994 429.952 611.645 433.375 607.357 435.707C603.143 437.965 598.366 439.093 593.024 439.093ZM593.475 430.629C597.087 430.629 600.172 429.764 602.73 428.033C605.363 426.227 607.357 423.707 608.711 420.472C610.141 417.236 610.855 413.399 610.855 408.96C610.855 404.371 610.103 400.421 608.598 397.11C607.169 393.724 605.1 391.129 602.391 389.323C599.683 387.442 596.41 386.501 592.572 386.501C589.112 386.501 586.064 387.329 583.431 388.984C580.798 390.64 578.766 393.085 577.337 396.32C575.907 399.48 575.192 403.355 575.192 407.944C575.192 415.017 576.81 420.584 580.045 424.647C583.356 428.635 587.832 430.629 593.475 430.629ZM448.137 555.626V481.14H458.52V555.626H448.137ZM398.706 555.626V481.14H409.089V555.626H398.706ZM403.897 521.994V513.079H452.313V521.994H403.897ZM494.203 557.093C489.613 557.093 485.55 556.416 482.014 555.062C478.553 553.632 475.619 551.601 473.211 548.967C470.804 546.334 468.998 543.212 467.794 539.6C466.59 535.989 465.988 531.926 465.988 527.412C465.988 522.822 466.59 518.609 467.794 514.771C468.998 510.934 470.766 507.586 473.098 504.727C475.431 501.868 478.29 499.686 481.676 498.181C485.061 496.601 488.936 495.811 493.3 495.811C497.137 495.811 500.636 496.451 503.796 497.73C506.956 499.009 509.627 501.003 511.809 503.711C514.066 506.345 515.759 509.693 516.887 513.756C518.016 517.743 518.467 522.446 518.242 527.863L472.421 528.202V521.204L512.034 520.866L508.536 525.606C508.912 520.866 508.461 516.953 507.181 513.869C505.902 510.784 504.059 508.451 501.651 506.871C499.319 505.291 496.535 504.501 493.3 504.501C489.839 504.501 486.792 505.404 484.158 507.21C481.525 509.016 479.494 511.611 478.064 514.997C476.71 518.383 476.033 522.483 476.033 527.299C476.033 534.221 477.575 539.525 480.66 543.212C483.745 546.823 488.334 548.629 494.429 548.629C496.761 548.629 498.792 548.365 500.523 547.839C502.329 547.237 503.833 546.447 505.037 545.469C506.316 544.415 507.332 543.212 508.084 541.857C508.912 540.503 509.551 539.036 510.003 537.456L519.032 539.6C518.354 542.309 517.301 544.754 515.872 546.936C514.517 549.043 512.787 550.848 510.68 552.353C508.649 553.858 506.279 555.024 503.57 555.852C500.861 556.679 497.739 557.093 494.203 557.093ZM538.712 557.093C535.552 557.093 532.693 556.491 530.135 555.287C527.577 554.008 525.545 552.165 524.04 549.757C522.536 547.275 521.783 544.152 521.783 540.39C521.783 537.606 522.272 535.161 523.25 533.054C524.304 530.948 525.884 529.142 527.99 527.637C530.172 526.132 532.956 524.891 536.342 523.913C539.728 522.935 543.866 522.107 548.756 521.43C551.54 521.054 553.797 520.678 555.528 520.301C557.334 519.925 558.65 519.323 559.478 518.496C560.305 517.593 560.719 516.276 560.719 514.546C560.719 511.687 559.741 509.279 557.785 507.323C555.829 505.367 552.744 504.389 548.531 504.389C546.349 504.389 544.129 504.765 541.872 505.517C539.615 506.27 537.621 507.549 535.891 509.354C534.235 511.085 533.182 513.53 532.731 516.69L523.25 513.53C523.852 510.821 524.83 508.376 526.185 506.194C527.614 504.012 529.42 502.169 531.602 500.664C533.784 499.084 536.304 497.88 539.163 497.053C542.098 496.225 545.333 495.811 548.869 495.811C553.76 495.811 557.823 496.639 561.058 498.294C564.368 499.949 566.814 502.508 568.394 505.969C570.049 509.354 570.876 513.718 570.876 519.06V532.039C570.876 534.371 570.914 536.929 570.989 539.713C571.14 542.422 571.328 545.168 571.554 547.952C571.779 550.66 572.005 553.218 572.231 555.626H562.751C562.525 553.218 562.299 550.811 562.074 548.403C561.923 545.995 561.81 543.588 561.735 541.18H560.268C559.139 543.964 557.634 546.56 555.754 548.967C553.873 551.375 551.503 553.331 548.643 554.836C545.86 556.341 542.549 557.093 538.712 557.093ZM541.759 548.742C543.414 548.742 545.07 548.478 546.725 547.952C548.455 547.425 550.148 546.56 551.803 545.356C553.534 544.152 555.152 542.61 556.656 540.729C558.236 538.848 559.628 536.591 560.832 533.957V522.672L563.766 523.236C562.563 524.44 560.945 525.342 558.914 525.944C556.957 526.546 554.775 527.035 552.368 527.412C549.96 527.788 547.553 528.202 545.145 528.653C542.737 529.029 540.518 529.631 538.486 530.459C536.53 531.211 534.95 532.302 533.746 533.732C532.542 535.161 531.941 537.117 531.941 539.6C531.941 542.61 532.843 544.904 534.649 546.484C536.455 547.989 538.825 548.742 541.759 548.742ZM580.203 555.626V524.026V497.279H589.457L588.555 517.593H590.473C591.15 513.154 592.204 509.317 593.633 506.081C595.063 502.846 596.944 500.326 599.276 498.52C601.684 496.714 604.656 495.811 608.192 495.811C608.944 495.811 609.809 495.887 610.788 496.037C611.766 496.112 612.894 496.376 614.173 496.827L613.609 507.549C612.48 507.097 611.352 506.796 610.223 506.646C609.095 506.42 608.004 506.307 606.95 506.307C604.016 506.307 601.458 507.248 599.276 509.129C597.169 511.01 595.401 513.568 593.972 516.803C592.542 519.963 591.376 523.537 590.473 527.524V555.626H580.203ZM617.493 555.626V497.279H627.763V555.626H617.493ZM622.684 487.121C620.277 487.121 618.471 486.632 617.267 485.654C616.063 484.676 615.461 483.209 615.461 481.253C615.461 479.297 616.063 477.829 617.267 476.851C618.471 475.873 620.239 475.384 622.571 475.384C624.979 475.384 626.785 475.873 627.989 476.851C629.192 477.829 629.794 479.297 629.794 481.253C629.794 483.134 629.192 484.601 627.989 485.654C626.785 486.632 625.017 487.121 622.684 487.121ZM637.694 555.626V519.399V497.279H646.949L645.933 515.787H647.852C648.905 511.198 650.297 507.436 652.027 504.501C653.833 501.567 656.09 499.385 658.799 497.956C661.507 496.526 664.667 495.811 668.279 495.811C674.749 495.811 679.64 498.144 682.95 502.809C686.336 507.398 688.029 514.282 688.029 523.462V555.626H677.646V524.364C677.646 517.743 676.593 512.853 674.486 509.693C672.455 506.533 669.445 504.953 665.457 504.953C661.846 504.953 658.761 506.081 656.203 508.339C653.72 510.596 651.764 513.568 650.334 517.254C648.905 520.941 648.115 524.929 647.964 529.217V555.626H637.694ZM718.806 575.376C712.636 575.376 707.557 574.887 703.57 573.909C699.657 573.006 696.761 571.577 694.88 569.62C692.999 567.739 692.058 565.369 692.058 562.51C692.058 559.049 693.413 556.19 696.121 553.933C698.83 551.676 702.93 550.171 708.423 549.419V547.387C704.435 547.387 701.426 546.898 699.394 545.92C697.363 544.942 696.347 543.475 696.347 541.519C696.347 539.487 697.363 537.794 699.394 536.44C701.426 535.011 704.736 533.694 709.326 532.49V530.346C704.736 530.271 701.237 528.916 698.83 526.283C696.422 523.574 695.218 520.076 695.218 515.787C695.218 511.95 696.234 508.64 698.266 505.856C700.372 502.997 703.382 500.815 707.294 499.31C711.282 497.73 716.022 496.94 721.514 496.94H749.052V505.63L730.994 502.809V504.953C735.358 505.856 738.706 507.398 741.039 509.58C743.371 511.687 744.537 514.546 744.537 518.157C744.537 521.392 743.597 524.214 741.716 526.622C739.835 529.029 737.051 530.91 733.364 532.264C729.753 533.543 725.276 534.183 719.934 534.183C718.881 534.183 717.752 534.145 716.548 534.07C715.42 533.92 713.915 533.694 712.034 533.393C710.003 534.672 708.347 535.838 707.068 536.892C705.865 537.945 705.263 538.885 705.263 539.713C705.263 540.541 705.827 541.218 706.956 541.744C708.159 542.196 709.589 542.497 711.244 542.647C712.899 542.798 714.442 542.873 715.871 542.873H729.076C730.58 542.873 732.461 543.024 734.719 543.324C737.051 543.625 739.346 544.265 741.603 545.243C743.935 546.221 745.892 547.726 747.472 549.757C749.052 551.789 749.842 554.61 749.842 558.222C749.842 562.285 748.638 565.595 746.23 568.153C743.822 570.711 740.324 572.555 735.734 573.683C731.145 574.812 725.502 575.376 718.806 575.376ZM719.031 566.912C724.072 566.912 728.135 566.573 731.22 565.896C734.38 565.294 736.675 564.316 738.104 562.962C739.609 561.607 740.361 559.877 740.361 557.77C740.361 555.814 739.835 554.309 738.781 553.256C737.803 552.127 736.562 551.337 735.057 550.886C733.552 550.435 732.048 550.171 730.543 550.096C729.038 549.945 727.759 549.87 726.706 549.87H713.501C709.138 550.848 706.128 552.203 704.473 553.933C702.817 555.664 701.99 557.507 701.99 559.463C701.99 561.57 702.742 563.15 704.247 564.203C705.752 565.257 707.783 565.971 710.341 566.347C712.975 566.724 715.871 566.912 719.031 566.912ZM720.386 527.524C725.126 527.524 728.7 526.546 731.107 524.59C733.515 522.634 734.719 520.001 734.719 516.69C734.719 513.154 733.477 510.257 730.994 508C728.587 505.668 724.938 504.501 720.047 504.501C715.307 504.501 711.658 505.592 709.1 507.774C706.617 509.956 705.376 512.778 705.376 516.239C705.376 518.496 705.94 520.49 707.068 522.22C708.272 523.875 709.965 525.192 712.147 526.17C714.404 527.073 717.15 527.524 720.386 527.524ZM392.386 673.626L418.569 599.14H433.692L459.875 673.626H448.702L426.807 607.83H425.453L403.559 673.626H392.386ZM404.8 656.923V649.023H448.702V656.923H404.8ZM464.081 673.626V615.279H474.351V673.626H464.081ZM469.273 605.121C466.865 605.121 465.059 604.632 463.856 603.654C462.652 602.676 462.05 601.209 462.05 599.253C462.05 597.297 462.652 595.829 463.856 594.851C465.059 593.873 466.827 593.384 469.16 593.384C471.568 593.384 473.373 593.873 474.577 594.851C475.781 595.829 476.383 597.297 476.383 599.253C476.383 601.134 475.781 602.601 474.577 603.654C473.373 604.632 471.605 605.121 469.273 605.121ZM504.823 675.093C499.857 675.093 495.606 673.776 492.07 671.143C488.534 668.51 485.825 664.898 483.944 660.309C482.139 655.719 481.236 650.453 481.236 644.509C481.236 638.565 482.139 633.298 483.944 628.709C485.75 624.119 488.383 620.508 491.844 617.874C495.305 615.241 499.556 613.924 504.597 613.924C508.735 613.924 512.121 614.789 514.754 616.52C517.388 618.25 519.494 620.508 521.074 623.291C522.73 626 523.933 628.972 524.686 632.207H526.717C526.341 630.025 526.003 627.768 525.702 625.436C525.401 623.028 525.137 620.696 524.912 618.439C524.686 616.106 524.573 614.037 524.573 612.231V594.626H534.956V644.847V673.626H525.702L526.266 657.826H524.46C523.557 661.212 522.278 664.221 520.623 666.855C518.968 669.413 516.861 671.444 514.303 672.949C511.745 674.378 508.585 675.093 504.823 675.093ZM507.193 666.065C509.902 666.065 512.347 665.425 514.529 664.146C516.711 662.867 518.554 661.212 520.059 659.18C521.563 657.074 522.692 654.816 523.444 652.409C524.272 650.001 524.686 647.669 524.686 645.412V644.057C524.686 642.477 524.46 640.784 524.009 638.979C523.557 637.098 522.88 635.217 521.977 633.336C521.15 631.455 520.021 629.724 518.592 628.144C517.237 626.489 515.62 625.21 513.739 624.307C511.858 623.329 509.751 622.84 507.419 622.84C504.033 622.84 501.174 623.818 498.841 625.774C496.584 627.655 494.854 630.251 493.65 633.561C492.521 636.872 491.957 640.596 491.957 644.734C491.957 649.023 492.559 652.785 493.763 656.02C494.967 659.18 496.697 661.663 498.954 663.469C501.287 665.199 504.033 666.065 507.193 666.065ZM597.857 675.093C592.515 675.093 587.7 674.266 583.412 672.61C579.198 670.955 575.624 668.51 572.69 665.275C569.756 662.039 567.499 658.089 565.919 653.424C564.414 648.684 563.661 643.305 563.661 637.286C563.661 631.191 564.451 625.737 566.032 620.921C567.612 616.031 569.869 611.855 572.803 608.394C575.737 604.933 579.273 602.3 583.412 600.494C587.55 598.613 592.177 597.673 597.293 597.673C601.206 597.673 604.817 598.237 608.127 599.366C611.438 600.419 614.297 601.999 616.705 604.106C619.188 606.137 621.106 608.62 622.46 611.554C623.815 614.489 624.529 617.761 624.605 621.373L614.786 623.856C614.861 620.019 614.071 616.859 612.416 614.376C610.761 611.818 608.579 609.899 605.87 608.62C603.162 607.341 600.227 606.701 597.067 606.701C594.133 606.701 591.274 607.303 588.49 608.507C585.782 609.636 583.374 611.441 581.267 613.924C579.161 616.332 577.468 619.454 576.189 623.291C574.985 627.053 574.383 631.605 574.383 636.947C574.383 643.794 575.361 649.324 577.317 653.537C579.349 657.751 582.17 660.873 585.782 662.904C589.393 664.861 593.569 665.839 598.309 665.839C602.898 665.839 606.585 665.011 609.369 663.356C612.153 661.625 614.222 659.255 615.576 656.246C616.93 653.161 617.72 649.625 617.946 645.637L627.2 647.33C627.125 651.092 626.523 654.666 625.395 658.052C624.266 661.437 622.536 664.409 620.203 666.967C617.871 669.525 614.861 671.519 611.175 672.949C607.488 674.378 603.049 675.093 597.857 675.093ZM657.899 675.093C653.31 675.093 649.247 674.416 645.711 673.062C642.25 671.632 639.316 669.601 636.908 666.967C634.5 664.334 632.695 661.212 631.491 657.6C630.287 653.989 629.685 649.926 629.685 645.412C629.685 640.822 630.287 636.609 631.491 632.771C632.695 628.934 634.463 625.586 636.795 622.727C639.127 619.868 641.987 617.686 645.372 616.181C648.758 614.601 652.633 613.811 656.997 613.811C660.834 613.811 664.332 614.451 667.492 615.73C670.652 617.009 673.323 619.003 675.505 621.711C677.762 624.345 679.455 627.693 680.584 631.756C681.712 635.743 682.164 640.446 681.938 645.863L636.118 646.202V639.204L675.731 638.866L672.232 643.606C672.609 638.866 672.157 634.953 670.878 631.869C669.599 628.784 667.756 626.451 665.348 624.871C663.016 623.291 660.232 622.501 656.997 622.501C653.536 622.501 650.488 623.404 647.855 625.21C645.222 627.016 643.19 629.611 641.761 632.997C640.407 636.383 639.729 640.483 639.729 645.299C639.729 652.221 641.272 657.525 644.357 661.212C647.441 664.823 652.031 666.629 658.125 666.629C660.458 666.629 662.489 666.365 664.22 665.839C666.025 665.237 667.53 664.447 668.734 663.469C670.013 662.415 671.029 661.212 671.781 659.857C672.609 658.503 673.248 657.036 673.7 655.456L682.728 657.6C682.051 660.309 680.998 662.754 679.568 664.936C678.214 667.043 676.483 668.848 674.377 670.353C672.345 671.858 669.975 673.024 667.267 673.852C664.558 674.679 661.436 675.093 657.899 675.093ZM688.648 673.626V637.399V615.279H697.902L696.887 633.787H698.805C699.858 629.198 701.25 625.436 702.981 622.501C704.787 619.567 707.044 617.385 709.752 615.956C712.461 614.526 715.621 613.811 719.232 613.811C725.703 613.811 730.593 616.144 733.904 620.809C737.29 625.398 738.983 632.282 738.983 641.462V673.626H728.6V642.364C728.6 635.743 727.546 630.853 725.44 627.693C723.408 624.533 720.399 622.953 716.411 622.953C712.8 622.953 709.715 624.081 707.157 626.339C704.674 628.596 702.718 631.568 701.288 635.254C699.858 638.941 699.068 642.929 698.918 647.217V673.626H688.648ZM766.037 674.755C760.62 674.755 756.595 673.287 753.962 670.353C751.328 667.419 750.012 662.942 750.012 656.923V623.856H741.209L741.322 615.279H746.852C748.733 615.279 750.087 614.94 750.915 614.263C751.817 613.586 752.344 612.457 752.495 610.877L753.623 602.074H759.943V615.279H776.759V623.969H759.943V656.697C759.943 659.707 760.62 661.889 761.975 663.243C763.404 664.522 765.436 665.162 768.069 665.162C769.498 665.162 770.966 664.974 772.47 664.597C774.05 664.221 775.593 663.469 777.098 662.34V672.61C774.916 673.438 772.884 674.002 771.003 674.303C769.198 674.604 767.542 674.755 766.037 674.755ZM781.848 673.626V642.026V615.279H791.103L790.2 635.593H792.118C792.795 631.154 793.849 627.317 795.278 624.081C796.708 620.846 798.589 618.326 800.921 616.52C803.329 614.714 806.301 613.811 809.837 613.811C810.589 613.811 811.455 613.887 812.433 614.037C813.411 614.112 814.539 614.376 815.818 614.827L815.254 625.549C814.125 625.097 812.997 624.796 811.868 624.646C810.74 624.42 809.649 624.307 808.595 624.307C805.661 624.307 803.103 625.248 800.921 627.129C798.814 629.01 797.046 631.568 795.617 634.803C794.187 637.963 793.021 641.537 792.118 645.524V673.626H781.848ZM843.088 675.093C838.498 675.093 834.435 674.416 830.899 673.062C827.438 671.632 824.504 669.601 822.096 666.967C819.688 664.334 817.883 661.212 816.679 657.6C815.475 653.989 814.873 649.926 814.873 645.412C814.873 640.822 815.475 636.609 816.679 632.771C817.883 628.934 819.651 625.586 821.983 622.727C824.316 619.868 827.175 617.686 830.56 616.181C833.946 614.601 837.821 613.811 842.185 613.811C846.022 613.811 849.52 614.451 852.68 615.73C855.841 617.009 858.511 619.003 860.693 621.711C862.951 624.345 864.643 627.693 865.772 631.756C866.901 635.743 867.352 640.446 867.126 645.863L821.306 646.202V639.204L860.919 638.866L857.421 643.606C857.797 638.866 857.345 634.953 856.066 631.869C854.787 628.784 852.944 626.451 850.536 624.871C848.204 623.291 845.42 622.501 842.185 622.501C838.724 622.501 835.677 623.404 833.043 625.21C830.41 627.016 828.378 629.611 826.949 632.997C825.595 636.383 824.917 640.483 824.917 645.299C824.917 652.221 826.46 657.525 829.545 661.212C832.629 664.823 837.219 666.629 843.313 666.629C845.646 666.629 847.677 666.365 849.408 665.839C851.213 665.237 852.718 664.447 853.922 663.469C855.201 662.415 856.217 661.212 856.969 659.857C857.797 658.503 858.436 657.036 858.888 655.456L867.916 657.6C867.239 660.309 866.186 662.754 864.756 664.936C863.402 667.043 861.671 668.848 859.565 670.353C857.533 671.858 855.163 673.024 852.455 673.852C849.746 674.679 846.624 675.093 843.088 675.093Z" fill="white"/>
</svg>
